<svg width="199" height="34" viewBox="0 0 199 34" fill="none" xmlns="http://www.w3.org/2000/svg">
<path d="M7.89233 25.8848V16.31L0.173096 2.86372H5.8154L10.4885 11.9546L15.1269 2.86372H20.6654L12.9116 16.31V25.8848H7.89233ZM25.4929 26.4033C23.6698 26.4033 22.2044 25.6313 21.0968 24.0873C20.0121 22.5203 19.4698 20.3772 19.4698 17.658C19.4698 14.3858 20.3006 11.897 21.9621 10.1917C23.6237 8.46344 26.0121 7.59928 29.1275 7.59928C30.8814 7.59928 32.9352 7.87581 35.2891 8.42887V25.8848H30.6506L30.7544 23.0504H30.616C29.416 25.2856 27.7083 26.4033 25.4929 26.4033ZM26.5314 22.1516C27.2929 22.1516 28.0198 21.7484 28.7121 20.9418C29.4044 20.1353 30.0275 19.1444 30.5814 17.9691V12.162C30.2121 12.0468 29.8314 11.9661 29.4391 11.9201C29.0468 11.874 28.6891 11.8509 28.366 11.8509C25.5737 11.8509 24.1775 13.7175 24.1775 17.4506C24.1775 18.9024 24.3852 20.0546 24.8006 20.9073C25.216 21.7368 25.7929 22.1516 26.5314 22.1516ZM44.7612 26.4033C43.6304 26.4033 42.5343 26.288 41.4727 26.0576C40.4343 25.8272 39.5458 25.5161 38.8073 25.1243L39.2573 20.9764C40.0419 21.4603 40.9073 21.8521 41.8535 22.1516C42.7996 22.4512 43.6881 22.601 44.5189 22.601C45.2573 22.601 45.9035 22.4627 46.4573 22.1862C47.0112 21.9097 47.2881 21.4834 47.2881 20.9073C47.2881 20.3542 46.9881 19.9509 46.3881 19.6974C45.8112 19.444 44.9112 19.0868 43.6881 18.6259C43.2266 18.4415 42.7073 18.2341 42.1304 18.0037C41.5766 17.7733 41.0458 17.4737 40.5381 17.105C40.0304 16.7132 39.615 16.2178 39.2919 15.6186C38.9689 14.9964 38.8073 14.2245 38.8073 13.3027C38.8073 12.0583 39.1189 11.0213 39.7419 10.1917C40.3881 9.33911 41.265 8.69388 42.3727 8.25604C43.4804 7.8182 44.7266 7.59928 46.1112 7.59928C47.0573 7.59928 47.9804 7.69146 48.8804 7.87581C49.8035 8.06017 50.6804 8.30213 51.5112 8.6017L50.8535 12.7151C50.1843 12.3233 49.4227 12.0122 48.5689 11.7818C47.7381 11.5283 46.9535 11.4016 46.215 11.4016C45.4996 11.4016 44.8996 11.5283 44.415 11.7818C43.9535 12.0122 43.7227 12.3809 43.7227 12.8879C43.7227 13.3027 43.8843 13.6368 44.2073 13.8903C44.5304 14.1208 44.9689 14.3282 45.5227 14.5125C46.0766 14.6738 46.6881 14.8927 47.3573 15.1693C48.0266 15.4228 48.7304 15.7454 49.4689 16.1371C50.2304 16.5289 50.8766 17.0819 51.4073 17.7963C51.9381 18.5107 52.2035 19.49 52.2035 20.7344C52.2035 22.0479 51.8689 23.131 51.1996 23.9836C50.5535 24.8132 49.665 25.4239 48.5343 25.8156C47.4266 26.2074 46.1689 26.4033 44.7612 26.4033ZM55.8294 25.8848V0.651489H60.7102V10.6757C61.4487 9.5926 62.2794 8.8091 63.2025 8.32517C64.1256 7.84125 65.1756 7.59928 66.3525 7.59928C68.2679 7.59928 69.7679 8.17539 70.8525 9.32759C71.9371 10.4568 72.4794 12.0353 72.4794 14.0632V25.8848H67.5987V14.8236C67.5987 13.8788 67.3679 13.1529 66.9064 12.6459C66.4448 12.139 65.8218 11.8855 65.0371 11.8855C64.1602 11.8855 63.3294 12.1851 62.5448 12.7842C61.7833 13.3834 61.1718 14.1553 60.7102 15.1001V25.8848H55.8294ZM80.3871 27.06C79.4179 27.06 78.5756 26.7028 77.8602 25.9885C77.1679 25.2972 76.8218 24.4676 76.8218 23.4997C76.8218 22.5088 77.1679 21.6677 77.8602 20.9764C78.5756 20.262 79.4179 19.9048 80.3871 19.9048C81.3794 19.9048 82.2218 20.262 82.9141 20.9764C83.6064 21.6677 83.9525 22.5088 83.9525 23.4997C83.9525 24.4676 83.6064 25.2972 82.9141 25.9885C82.2218 26.7028 81.3794 27.06 80.3871 27.06ZM92.2581 25.9193C91.635 25.9193 91.012 25.9193 90.3889 25.9193C89.7889 25.9193 89.1889 25.9078 88.5889 25.8848V2.86372C89.3273 2.84068 90.0658 2.82916 90.8043 2.82916C91.5427 2.82916 92.2696 2.82916 92.985 2.82916C93.7235 2.82916 94.462 2.82916 95.2004 2.82916C95.9389 2.82916 96.6658 2.84068 97.3812 2.86372C99.6658 2.88677 101.639 3.34765 103.3 4.24637C104.962 5.12204 106.243 6.37795 107.143 8.01408C108.066 9.62716 108.527 11.5398 108.527 13.7521C108.527 16.1717 107.997 18.2917 106.935 20.1122C105.897 21.9097 104.431 23.3154 102.539 24.3293C100.647 25.3202 98.4312 25.8387 95.8927 25.8848C95.2927 25.9078 94.6812 25.9193 94.0581 25.9193C93.4581 25.9193 92.8581 25.9193 92.2581 25.9193ZM93.6081 21.5294H95.8581C98.1889 21.5294 100.023 20.8496 101.362 19.49C102.7 18.1304 103.37 16.2639 103.37 13.8903C103.37 11.7472 102.793 10.0996 101.639 8.94736C100.508 7.79516 98.8696 7.21906 96.7235 7.21906H93.6081V21.5294ZM120.829 26.4033C117.968 26.4033 115.706 25.5737 114.044 23.9145C112.383 22.2553 111.552 19.9509 111.552 17.0013C111.552 15.0656 111.91 13.3949 112.625 11.9892C113.341 10.5835 114.344 9.50042 115.637 8.73997C116.952 7.97951 118.487 7.59928 120.241 7.59928C122.825 7.59928 124.81 8.42887 126.194 10.088C127.579 11.7472 128.271 14.1438 128.271 17.2778C128.271 17.4852 128.271 17.6926 128.271 17.9C128.271 18.0843 128.26 18.2687 128.237 18.4531H116.468C116.929 20.9418 118.579 22.1862 121.418 22.1862C122.294 22.1862 123.183 22.0825 124.083 21.8751C125.006 21.6447 125.814 21.3451 126.506 20.9764L127.302 24.8824C125.387 25.8963 123.229 26.4033 120.829 26.4033ZM116.433 14.789H123.598C123.529 13.7981 123.183 13.0146 122.56 12.4385C121.937 11.8394 121.106 11.5398 120.068 11.5398C119.075 11.5398 118.256 11.8279 117.61 12.404C116.987 12.9801 116.594 13.7751 116.433 14.789ZM137.08 26.4033C135.949 26.4033 134.853 26.288 133.792 26.0576C132.753 25.8272 131.865 25.5161 131.126 25.1243L131.576 20.9764C132.361 21.4603 133.226 21.8521 134.173 22.1516C135.119 22.4512 136.007 22.601 136.838 22.601C137.576 22.601 138.223 22.4627 138.776 22.1862C139.33 21.9097 139.607 21.4834 139.607 20.9073C139.607 20.3542 139.307 19.9509 138.707 19.6974C138.13 19.444 137.23 19.0868 136.007 18.6259C135.546 18.4415 135.026 18.2341 134.449 18.0037C133.896 17.7733 133.365 17.4737 132.857 17.105C132.349 16.7132 131.934 16.2178 131.611 15.6186C131.288 14.9964 131.126 14.2245 131.126 13.3027C131.126 12.0583 131.438 11.0213 132.061 10.1917C132.707 9.33911 133.584 8.69388 134.692 8.25604C135.799 7.8182 137.046 7.59928 138.43 7.59928C139.376 7.59928 140.299 7.69146 141.199 7.87581C142.123 8.06017 142.999 8.30213 143.83 8.6017L143.173 12.7151C142.503 12.3233 141.742 12.0122 140.888 11.7818C140.057 11.5283 139.273 11.4016 138.534 11.4016C137.819 11.4016 137.219 11.5283 136.734 11.7818C136.273 12.0122 136.042 12.3809 136.042 12.8879C136.042 13.3027 136.203 13.6368 136.526 13.8903C136.849 14.1208 137.288 14.3282 137.842 14.5125C138.396 14.6738 139.007 14.8927 139.676 15.1693C140.346 15.4228 141.049 15.7454 141.788 16.1371C142.549 16.5289 143.196 17.0819 143.726 17.7963C144.257 18.5107 144.523 19.49 144.523 20.7344C144.523 22.0479 144.188 23.131 143.519 23.9836C142.873 24.8132 141.984 25.4239 140.853 25.8156C139.746 26.2074 138.488 26.4033 137.08 26.4033ZM150.056 5.14509V0.651489H155.629V5.14509H150.056ZM147.356 25.8848V21.7023H150.679V12.2657H147.356V8.08321H155.56V21.7023H158.537V25.8848H147.356ZM167.552 33.7313C166.722 33.7313 165.775 33.6737 164.714 33.5585C163.675 33.4432 162.614 33.2358 161.529 32.9363L162.464 28.6501C163.41 28.9266 164.345 29.157 165.268 29.3414C166.191 29.5257 167.102 29.6179 168.002 29.6179C169.202 29.6179 170.114 29.422 170.737 29.0303C171.383 28.6616 171.833 28.074 172.087 27.2674C172.341 26.4609 172.491 25.4124 172.537 24.1219H172.433C171.118 25.6428 169.433 26.4033 167.379 26.4033C165.349 26.4033 163.756 25.6428 162.602 24.1219C161.472 22.5779 160.906 20.4464 160.906 17.7272C160.906 14.4319 161.76 11.9201 163.468 10.1917C165.175 8.46344 167.599 7.59928 170.737 7.59928C171.683 7.59928 172.71 7.67994 173.818 7.84125C174.925 7.97951 176.068 8.17539 177.245 8.42887C177.268 10.2033 177.279 11.9892 177.279 13.7866C177.302 15.5841 177.314 17.37 177.314 19.1444C177.314 19.9509 177.314 20.7575 177.314 21.564C177.314 22.3706 177.302 23.1771 177.279 23.9836C177.233 27.2559 176.414 29.6986 174.822 31.3117C173.229 32.9247 170.806 33.7313 167.552 33.7313ZM168.66 22.1516C169.399 22.1516 170.079 21.8866 170.702 21.3566C171.348 20.8036 171.925 20.0546 172.433 19.1098V12.162C171.672 11.9546 170.933 11.8509 170.218 11.8509C168.741 11.8509 167.633 12.3233 166.895 13.2681C166.156 14.2129 165.787 15.5841 165.787 17.3815C165.787 18.8794 166.029 20.0546 166.514 20.9073C167.022 21.7368 167.737 22.1516 168.66 22.1516ZM181.75 25.8848V8.08321H186.527V11.1596C187.265 9.91522 188.119 9.0165 189.088 8.46344C190.08 7.88734 191.211 7.59928 192.481 7.59928C194.396 7.59928 195.896 8.17539 196.981 9.32759C198.065 10.4568 198.608 12.0353 198.608 14.0632V25.8848H193.727V14.8236C193.727 13.8788 193.496 13.1529 193.035 12.6459C192.573 12.139 191.95 11.8855 191.165 11.8855C190.219 11.8855 189.33 12.2427 188.5 12.957C187.692 13.6484 187.069 14.5125 186.63 15.5495V25.8848H181.75Z" fill="white"/>
</svg>
